<?xml version="1.0" standalone="no"?>
<!DOCTYPE svg PUBLIC "-//W3C//DTD SVG 20010904//EN"
 "http://www.w3.org/TR/2001/REC-SVG-20010904/DTD/svg10.dtd">
<svg version="1.0" xmlns="http://www.w3.org/2000/svg"
 width="300.000000pt" height="200.000000pt" viewBox="0 0 300.000000 200.000000"
 preserveAspectRatio="xMidYMid meet">
<metadata>
Created by potrace 1.10, written by Peter Selinger 2001-2011
</metadata>
<g transform="translate(0.000000,200.000000) scale(0.100000,-0.100000)"
fill="#000000" stroke="none">
<path d="M2419 1995 c-3 -2 -35 -5 -72 -6 -42 -1 -71 -7 -78 -15 -10 -12 6
-14 91 -14 l102 0 -8 -90 c-4 -62 -3 -104 6 -135 l13 -45 68 0 c63 0 85 -9 59
-25 -16 -10 -11 -28 6 -21 17 6 12 -6 -14 -36 -19 -22 -132 -26 -132 -5 0 9
-29 11 -120 9 -66 -2 -120 0 -120 5 0 19 41 73 55 73 8 0 14 6 12 13 -3 15 76
13 81 -3 6 -18 22 -11 22 10 0 11 -7 20 -15 20 -8 0 -15 5 -15 11 0 6 -20 9
-52 7 -40 -2 -52 -7 -54 -21 -4 -27 -47 -59 -59 -44 -6 7 -28 26 -51 43 -39
31 -41 31 -80 18 -86 -29 -119 -111 -71 -181 25 -37 35 -42 95 -45 41 -1 42
-2 49 -41 3 -23 19 -54 36 -73 24 -28 36 -34 70 -34 43 0 107 39 107 65 0 39
21 60 60 61 56 2 90 12 90 29 0 8 18 20 43 27 60 18 87 48 87 98 0 22 -4 40
-10 40 -6 0 -10 38 -10 93 l0 92 -45 -3 c-76 -6 -93 2 -89 43 2 26 -3 39 -18
50 -12 8 -25 12 -30 9 -4 -3 -8 -1 -8 5 0 5 6 12 13 14 6 3 7 6 1 6 -6 1 -13
-1 -15 -4z m169 -199 c3 -11 -4 -16 -22 -16 -22 0 -26 4 -26 31 0 30 1 31 23
17 12 -9 23 -23 25 -32z m-58 -1 c0 -20 5 -25 25 -25 29 0 31 -7 8 -32 -20
-22 -41 -23 -65 -1 -21 18 -24 53 -6 71 20 20 38 14 38 -13z m-376 -101 c38
-38 36 -95 -3 -135 -37 -37 -79 -38 -119 -4 -36 30 -46 63 -32 102 25 65 106
85 154 37z m151 -136 c32 -29 43 -85 21 -113 -15 -20 -15 -19 -16 6 0 35 -20
89 -32 89 -5 0 -6 -5 -3 -10 4 -6 2 -17 -4 -24 -9 -10 -7 -15 9 -19 18 -5 21
-12 18 -44 -3 -38 -3 -38 -48 -38 -45 0 -45 0 -48 38 -3 31 0 40 16 43 14 4
17 12 14 34 -3 24 0 29 19 33 24 4 24 4 0 3 -31 -1 -59 -48 -60 -100 -1 -32
-3 -36 -15 -27 -20 17 -28 55 -17 84 25 65 97 87 146 45z m170 11 c4 -6 14 -8
22 -5 15 6 10 -5 -16 -36 -12 -13 -30 -18 -73 -18 l-58 0 0 35 0 35 59 0 c33
0 63 -5 66 -11z"/>
<path d="M2071 1676 c-9 -10 -9 -20 -2 -33 7 -15 5 -22 -10 -31 -10 -7 -19
-17 -19 -22 0 -16 22 -12 36 8 13 16 15 15 34 -8 19 -25 20 -25 20 -3 0 12 -6
26 -12 30 -7 4 -13 21 -13 37 0 33 -16 44 -34 22z"/>
<path d="M2674 1883 c-1 -227 -12 -448 -24 -478 -6 -17 -8 -41 -4 -55 11 -35
4 -631 -7 -652 -6 -12 -6 -18 1 -18 5 0 10 -4 10 -10 0 -5 -24 -11 -52 -12
l-53 -1 49 -6 49 -6 -37 -17 c-26 -13 -65 -19 -134 -20 -90 -2 -91 -2 -22 -5
41 -2 86 -6 100 -9 48 -12 -9 -22 -100 -17 -107 5 -139 11 -120 23 7 4 20 6
28 2 10 -3 13 -1 8 6 -4 7 -14 12 -22 12 -8 0 -28 7 -45 15 -31 17 -93 21
-757 50 -190 8 -348 17 -350 20 -8 8 56 6 540 -15 252 -12 484 -20 516 -18 31
2 -190 13 -493 26 -302 13 -557 25 -565 28 -9 2 -17 12 -17 21 -1 10 -15 70
-32 133 -20 80 -26 117 -18 122 6 4 14 5 18 2 4 -2 10 0 14 6 3 5 23 14 45 20
21 6 67 27 102 46 68 39 134 65 143 56 3 -3 5 -20 5 -38 0 -28 4 -34 33 -42
43 -13 271 -18 437 -10 47 2 123 2 168 -1 46 -3 86 -3 89 2 2 4 8 5 13 2 14
-9 150 -14 150 -5 0 12 191 4 224 -9 37 -15 61 5 71 55 11 59 -4 67 -111 61
-57 -3 -96 -1 -103 6 -7 7 -15 6 -26 -3 -12 -10 -24 -11 -54 -2 -21 7 -62 10
-92 7 -30 -3 -97 -5 -149 -5 -52 -1 -115 -1 -140 -2 -68 -1 -115 -1 -235 1
-60 1 -117 2 -125 1 -8 -1 -39 2 -67 6 -35 4 -57 3 -66 -5 -8 -6 -17 -8 -20
-4 -12 11 -8 43 6 49 22 8 13 45 -16 70 -21 18 -35 22 -60 17 -31 -6 -80 -37
-115 -72 -27 -28 -52 -38 -117 -45 -75 -8 -90 0 -70 38 8 16 15 37 15 47 0 11
4 19 10 19 6 0 9 38 7 98 -3 96 -3 97 -39 136 -42 46 -103 65 -192 60 -91 -5
-196 -47 -196 -79 0 -7 -7 -18 -15 -25 -51 -42 25 -262 101 -290 46 -18 38
-28 -105 -145 -24 -20 -52 -40 -62 -45 -26 -14 -32 -46 -16 -79 19 -37 5 -117
-21 -124 -12 -3 -11 -5 5 -6 12 0 25 -6 29 -12 4 -8 -18 -10 -77 -9 -112 3
-119 2 -119 -15 0 -8 -7 -15 -16 -15 -8 0 -13 -4 -10 -9 3 -5 81 -12 173 -15
93 -4 189 -9 214 -12 l47 -6 4 69 c5 68 -9 203 -21 203 -3 0 -14 -7 -24 -14
-14 -11 -16 -23 -11 -67 8 -75 -20 -153 -57 -157 -17 -2 -38 7 -58 24 -32 27
-33 28 -26 94 5 54 4 69 -9 79 -26 22 -20 51 9 51 14 0 28 6 31 14 3 8 40 40
82 72 42 31 85 66 95 77 18 20 18 20 32 0 10 -15 25 -20 55 -20 22 0 43 4 46
8 3 5 14 9 25 9 10 0 19 5 19 11 0 8 20 10 68 5 76 -6 194 14 201 36 8 24 67
77 94 83 57 15 98 -15 62 -45 -9 -7 -13 -21 -9 -35 5 -18 0 -24 -23 -29 -15
-4 -68 -27 -118 -51 -49 -24 -112 -49 -140 -56 -27 -7 -53 -15 -57 -18 -4 -4
7 -53 23 -111 16 -58 37 -136 46 -173 13 -53 21 -69 38 -72 16 -3 736 -36
1048 -48 l58 -2 -6 -37 -7 -38 64 0 c34 0 107 -3 161 -7 l97 -6 0 38 c0 37 0
38 34 32 l34 -5 7 61 c4 34 11 195 15 357 5 162 9 296 9 297 1 0 10 -1 21 -4
11 -3 31 2 45 11 14 9 28 16 32 16 12 0 -7 -924 -23 -1143 -6 -85 -7 -88 -28
-82 -46 14 -106 18 -106 6 0 -6 15 -11 33 -11 17 0 49 -3 70 -6 36 -6 37 -8
37 -50 0 -32 4 -44 14 -44 24 0 29 75 24 349 -3 141 -2 209 2 151 4 -58 5 23
3 180 -2 157 0 373 5 480 l9 195 -44 43 c-36 36 -49 43 -69 38 l-25 -7 7 286
c7 276 7 285 -12 285 -18 0 -19 -9 -20 -117z m-1665 -361 c14 -10 37 -34 49
-53 22 -31 23 -42 20 -119 -5 -97 -24 -143 -69 -168 -16 -10 -27 -22 -25 -29
3 -7 -8 -18 -23 -26 -24 -12 -31 -12 -46 0 -26 18 -40 16 -24 -4 12 -14 12
-15 -2 -7 -9 5 -29 19 -45 32 -16 13 -45 33 -64 45 -68 44 -106 131 -97 222 4
42 10 54 41 81 49 42 94 54 185 49 53 -3 82 -9 100 -23z m1711 -130 c16 -29
18 -30 23 -12 6 25 23 26 36 2 12 -22 -1 -45 -26 -47 -10 -1 -28 -7 -40 -13
-12 -7 -24 -12 -27 -12 -3 0 -6 27 -6 61 0 68 12 74 40 21z m-1221 -269 c9
-17 10 -17 16 0 12 30 30 19 30 -18 0 -35 -24 -52 -26 -17 0 11 -2 12 -6 4 -4
-10 -8 -10 -21 0 -13 11 -15 10 -9 -4 4 -11 2 -18 -6 -18 -9 0 -12 11 -9 35 5
38 16 45 31 18z m188 5 c2 6 9 12 14 12 6 0 8 -4 4 -9 -3 -6 14 -11 37 -13 36
-2 44 -7 46 -25 2 -13 -1 -23 -7 -23 -6 0 -12 10 -12 23 l-2 22 -4 -23 c-4
-21 -9 -22 -79 -21 -71 1 -74 2 -74 25 0 17 6 24 19 24 11 0 23 5 27 11 4 8 9
7 16 -2 7 -11 11 -11 15 -1z m287 -27 c1 -20 -3 -31 -11 -31 -7 0 -13 7 -13
15 0 8 -4 15 -10 15 -5 0 -10 -7 -10 -15 0 -8 -6 -15 -12 -15 -7 0 -13 11 -13
25 0 19 5 25 22 25 12 0 25 5 28 11 10 15 17 5 19 -30z m139 0 c-3 -12 3 -17
19 -18 13 0 17 1 11 4 -18 7 -16 33 2 33 9 0 15 -9 15 -25 0 -25 -1 -25 -84
-25 -86 0 -101 6 -90 34 9 23 33 20 45 -6 l10 -23 -5 23 c-3 18 0 22 20 22 18
0 24 -6 25 -22 1 -21 2 -21 6 -3 9 44 14 50 22 36 5 -7 7 -21 4 -30z m127 29
c0 -5 7 -10 16 -10 12 0 15 -7 12 -25 -3 -14 -1 -28 3 -31 5 -3 9 13 9 35 0
23 5 41 10 41 6 0 10 -18 10 -40 0 -29 -5 -43 -17 -47 -9 -4 -19 -1 -21 5 -2
7 -10 12 -18 12 -8 0 -14 5 -14 10 0 6 -5 10 -11 10 -5 0 -7 -4 -4 -10 4 -6
-5 -10 -19 -10 -21 0 -26 5 -26 25 0 18 5 25 20 25 11 0 20 -4 20 -10 0 -5 5
-10 11 -10 6 0 8 9 4 20 -4 11 -2 20 4 20 6 0 11 -4 11 -10z m183 -31 c-4 -14
-1 -18 10 -13 8 3 18 1 21 -5 4 -6 -12 -10 -44 -9 -31 0 -50 4 -50 11 0 7 -4
6 -9 -2 -12 -19 -41 -6 -41 19 0 13 7 20 20 20 11 0 20 -6 20 -12 0 -9 3 -9 9
1 5 8 16 11 24 8 9 -3 18 1 22 11 9 23 24 -3 18 -29z m187 11 c-6 -12 -8 -30
-5 -40 5 -16 2 -20 -20 -20 -21 0 -26 4 -23 22 2 11 -3 23 -9 25 -7 3 -13 -2
-13 -11 0 -9 -4 -16 -10 -16 -5 0 -10 12 -10 26 0 22 4 26 24 22 14 -3 31 -1
38 3 26 17 40 11 28 -11z m-1012 -13 c4 -20 -25 -34 -40 -19 -15 15 -1 44 19
40 10 -2 19 -11 21 -21z m242 12 c0 -8 5 -8 15 1 18 15 45 6 45 -15 0 -20 -27
-30 -43 -16 -10 7 -17 5 -27 -9 -22 -30 -35 -24 -35 15 0 30 3 35 23 35 12 0
22 -5 22 -11z m665 -14 c0 -11 -7 -21 -16 -23 -18 -3 -33 23 -23 39 10 17 39
5 39 -16z"/>
<path d="M479 1983 l-47 -4 -6 -197 c-12 -364 -11 -355 -30 -358 -71 -10 -76
-33 -75 -356 1 -150 4 -372 8 -493 6 -213 6 -220 -14 -235 -42 -31 -69 -71
-87 -127 -10 -32 -18 -59 -18 -60 0 -2 22 -3 48 -3 64 0 161 18 192 37 l25 14
-25 -5 c-71 -17 -194 -35 -198 -31 -10 10 19 84 43 113 32 38 99 66 125 52 10
-5 20 -22 22 -37 2 -18 10 -29 22 -31 16 -4 18 0 12 29 -8 42 -50 81 -83 77
-30 -4 -28 -32 -38 544 l-8 417 32 -12 32 -12 -6 -165 c-3 -91 -8 -214 -11
-273 -5 -106 -5 -108 16 -105 23 3 23 -2 34 405 3 84 8 157 11 163 3 6 6 23 5
38 -3 63 -3 123 -2 214 2 95 2 96 30 105 15 5 45 6 67 2 21 -3 75 -5 120 -3
44 3 119 4 166 4 58 0 90 4 96 12 15 18 23 69 10 61 -6 -4 -7 -1 -2 6 4 7 16
11 26 8 17 -5 17 -3 -4 23 -23 31 -64 42 -53 15 8 -23 -22 -33 -71 -24 -28 6
-61 5 -88 -2 -29 -7 -49 -8 -62 -1 -10 6 -38 9 -61 6 -23 -2 -53 1 -66 6 -17
6 -29 5 -42 -4 -22 -16 -51 -10 -56 12 -2 10 -2 43 0 75 3 50 7 58 28 63 40
10 55 -1 44 -31 -27 -71 -7 -83 127 -78 59 2 127 4 150 4 23 1 42 4 41 8 -1 3
2 17 6 30 16 47 -41 98 -72 64 -14 -15 -98 -18 -106 -4 -3 5 26 17 64 26 39 9
70 19 70 21 0 5 -275 2 -341 -3z m102 -70 c1 -17 2 -17 6 0 5 17 23 24 23 8 0
-28 -14 -70 -21 -65 -5 3 -7 10 -4 15 4 5 1 9 -4 9 -6 0 -11 -7 -11 -15 0 -8
-5 -15 -11 -15 -7 0 -9 9 -5 23 3 12 6 30 6 40 0 9 5 17 10 17 6 0 11 -8 11
-17z m89 7 c0 -5 -8 -10 -17 -11 -12 0 -13 -2 -5 -6 10 -4 10 -8 1 -19 -9 -11
-7 -14 10 -14 16 0 21 6 21 25 0 14 5 25 11 25 6 0 9 -9 6 -20 -3 -13 0 -20 9
-20 17 0 19 -20 2 -21 -7 0 -30 -1 -50 -3 -34 -3 -38 0 -38 20 0 36 11 54 31
54 10 0 19 -4 19 -10z m175 -25 c0 -21 -5 -31 -19 -33 -26 -5 -40 12 -32 43 5
20 12 26 29 23 17 -2 22 -10 22 -33z m-90 5 c-5 -14 -2 -20 9 -20 9 0 16 -4
16 -9 0 -12 -39 -21 -45 -11 -8 13 5 60 17 60 5 0 6 -9 3 -20z m-185 -120 c0
-5 -5 -10 -11 -10 -5 0 -7 -5 -3 -11 3 -6 0 -15 -7 -20 -11 -7 -10 -9 4 -9 9
0 17 -4 17 -10 0 -5 -11 -10 -25 -10 -26 0 -27 10 -9 68 4 14 34 16 34 2z
m250 0 c0 -5 -8 -10 -17 -10 -15 0 -16 -2 -3 -10 13 -9 13 -11 0 -20 -13 -8
-12 -10 3 -10 10 0 15 -4 12 -10 -11 -17 -45 -11 -45 8 0 37 13 62 31 62 11 0
19 -4 19 -10z m106 -7 c-4 -9 -1 -20 5 -24 18 -11 3 -39 -21 -39 -11 0 -20 5
-20 10 0 6 7 10 16 10 13 0 14 3 4 15 -14 16 -7 45 11 45 6 0 8 -7 5 -17z
m-439 -19 c-3 -19 -1 -24 10 -20 9 4 13 1 11 -6 -3 -7 -15 -15 -28 -16 -18 -3
-21 0 -16 13 3 9 6 25 6 36 0 10 5 19 11 19 7 0 9 -10 6 -26z m143 -14 c0 -22
-4 -40 -10 -40 -5 0 -10 8 -10 17 0 15 -2 14 -15 -3 -13 -17 -14 -17 -15 -2 0
27 22 68 37 68 9 0 13 -13 13 -40z m53 12 c-1 -11 4 -26 12 -32 13 -10 15 -8
15 15 0 20 4 26 15 21 9 -3 15 0 15 9 0 8 5 15 10 15 11 0 13 -24 4 -58 -5
-18 -9 -20 -20 -11 -10 8 -14 8 -14 0 0 -15 -40 -8 -51 10 -7 11 -9 11 -9 -3
0 -10 -4 -18 -10 -18 -14 0 -12 54 2 68 17 17 33 9 31 -16z m192 18 c4 -6 1
-17 -5 -25 -9 -11 -9 -15 -1 -15 6 0 11 -7 11 -17 0 -14 -2 -14 -20 2 -18 16
-20 16 -20 2 0 -10 -4 -17 -9 -17 -7 0 -5 36 4 68 5 15 31 16 40 2z m-445
-377 c0 -22 -2 -25 -10 -13 -8 12 -10 9 -10 -12 0 -15 5 -30 10 -33 6 -3 10
-11 10 -16 0 -14 -76 27 -83 45 -7 18 1 26 28 26 13 0 28 7 35 15 17 21 20 19
20 -12z"/>
<path d="M976 1951 l-28 -6 21 -19 c12 -11 21 -14 21 -9 0 6 9 13 19 16 20 5
43 -14 54 -46 4 -9 22 -25 41 -34 19 -9 38 -23 41 -31 6 -17 -12 -42 -31 -42
-8 0 -14 -10 -14 -25 0 -33 14 -32 38 3 32 45 33 80 4 102 -13 11 -30 20 -37
20 -7 0 -18 14 -25 30 -19 46 -41 55 -104 41z"/>
<path d="M2223 1935 c-10 -22 -8 -27 8 -35 21 -12 23 -4 11 37 l-7 22 -12 -24z"/>
<path d="M924 1924 c1 -17 11 -27 41 -39 23 -8 46 -15 53 -15 7 0 12 -5 12
-11 0 -6 -10 -9 -23 -7 -17 3 -23 0 -24 -14 -1 -11 5 -18 16 -18 25 0 43 24
39 52 -2 17 -9 23 -29 23 -15 0 -40 12 -57 27 l-30 26 2 -24z"/>
<path d="M2301 1934 c-25 -10 -31 -18 -24 -25 8 -8 17 -5 32 10 26 26 55 27
81 1 24 -24 30 -25 30 -6 0 13 -49 37 -74 36 -6 -1 -26 -7 -45 -16z"/>
<path d="M908 1873 c3 -14 11 -23 23 -23 26 0 24 23 -4 36 -21 10 -23 8 -19
-13z"/>
<path d="M1706 1881 c-3 -4 -31 -11 -62 -14 -31 -3 -61 -10 -67 -16 -5 -5 -16
-7 -23 -4 -8 3 -26 -2 -40 -11 -16 -11 -33 -14 -47 -10 -28 10 -58 6 -77 -11
-9 -8 -39 -12 -74 -12 -87 2 -100 -17 -121 -173 -1 -8 -5 -22 -9 -30 -8 -20
27 -76 52 -82 15 -4 19 -2 15 8 -4 12 -1 12 22 0 15 -8 34 -12 41 -9 8 3 18
-6 25 -21 11 -23 9 -29 -9 -49 -28 -30 -28 -48 1 -79 40 -46 78 -55 125 -29
13 7 29 10 37 8 7 -3 30 -2 51 3 22 5 77 11 123 15 46 3 89 9 95 13 6 3 38 9
71 13 68 8 105 39 105 88 0 27 -26 61 -47 61 -5 0 -20 11 -33 25 -13 14 -29
25 -36 25 -20 0 -21 21 -2 59 23 45 23 76 -1 98 -11 10 -22 34 -26 55 -7 36
-34 70 -67 81 -10 3 -20 2 -22 -2z m44 -46 c11 -13 11 -29 2 -79 -15 -81 -15
-93 -1 -79 6 6 16 21 23 34 13 25 30 29 34 8 4 -26 -36 -79 -62 -79 -41 0 -50
22 -37 92 11 62 4 91 -16 66 -8 -11 -34 -135 -36 -175 0 -9 -6 -9 -20 -2 -15
9 -18 17 -13 42 16 75 19 127 7 127 -15 0 -19 -10 -35 -102 -7 -43 -9 -78 -5
-78 5 0 9 -7 9 -15 0 -20 -8 -19 -34 6 -21 21 -22 25 -10 88 6 36 15 83 19
104 5 32 10 38 26 34 10 -3 22 -1 25 5 3 5 16 7 28 4 11 -3 28 -1 36 4 22 14
46 12 60 -5z m-198 -26 c5 -14 -26 -196 -34 -205 -4 -3 -43 -8 -87 -10 -47 -2
-90 -9 -103 -18 -13 -8 -42 -17 -65 -21 -38 -6 -43 -4 -43 12 0 22 28 194 32
198 2 1 21 6 43 9 33 6 44 3 58 -12 15 -16 16 -26 7 -72 -12 -64 -12 -70 -1
-70 5 0 12 30 16 68 8 82 25 112 64 112 34 0 54 -21 49 -51 -4 -30 -28 -36
-35 -10 -10 38 -28 16 -37 -43 -10 -65 -1 -82 37 -72 26 6 42 36 52 101 12 79
17 95 30 95 7 0 15 -5 17 -11z m218 -221 c-1 -13 -7 -49 -14 -80 -8 -32 -10
-60 -5 -63 7 -5 21 20 50 93 11 29 45 26 42 -3 -2 -11 4 -29 13 -40 14 -19 16
-19 25 -2 13 22 29 22 29 -1 0 -34 -45 -64 -97 -67 -26 -1 -49 -4 -50 -5 -2
-1 -15 -4 -30 -5 -16 -2 -53 -6 -83 -10 -95 -13 -105 -12 -108 12 -2 14 -8 20
-18 16 -16 -6 -19 -49 -4 -58 11 -7 4 -25 -8 -25 -4 0 -13 9 -20 21 -11 17
-11 35 -1 97 6 42 16 85 21 95 13 26 31 9 24 -24 -4 -23 -2 -28 17 -31 19 -3
22 -8 19 -45 -2 -24 1 -43 6 -43 10 0 22 33 22 65 0 31 17 52 30 39 7 -7 8
-24 1 -52 -7 -33 -6 -42 4 -42 8 0 18 22 25 58 6 31 13 69 16 85 6 29 34 38
34 10 -1 -10 -7 -46 -14 -80 -11 -52 -11 -63 0 -63 7 0 17 23 24 58 6 31 13
69 16 85 7 33 34 37 34 5z m-120 -24 c0 -17 -26 -19 -36 -3 -7 12 15 31 28 23
4 -3 8 -12 8 -20z m-186 -26 c14 -23 0 -35 -24 -20 -34 21 -34 -7 -1 -40 17
-17 31 -39 31 -50 0 -25 -44 -68 -70 -68 -25 0 -62 36 -58 57 5 25 29 28 35 4
3 -14 13 -21 29 -21 33 0 31 25 -6 67 -36 40 -36 47 -9 74 23 23 57 22 73 -3z"/>
<path d="M1286 1723 c-2 -10 -7 -33 -11 -50 -6 -30 -4 -33 18 -33 21 0 25 6
30 42 3 23 3 46 1 50 -9 14 -33 8 -38 -9z"/>
<path d="M2249 1862 c5 -10 11 -30 13 -45 6 -39 18 -45 18 -8 0 36 -15 71 -31
71 -6 0 -6 -6 0 -18z"/>
<path d="M2169 1849 c-8 -17 -8 -23 1 -29 9 -6 6 -10 -9 -15 -16 -5 -21 -14
-21 -40 0 -28 5 -36 24 -41 39 -10 63 3 68 37 3 21 0 34 -12 41 -11 7 -15 20
-12 39 5 35 -21 41 -39 8z m39 -87 c3 -17 -2 -22 -17 -22 -14 0 -21 6 -21 18
0 38 33 41 38 4z"/>
<path d="M1018 1803 c-24 -6 -23 -23 2 -23 16 0 20 -7 20 -30 0 -41 14 -38 27
5 10 31 9 37 -7 45 -10 6 -20 9 -22 9 -2 -1 -11 -3 -20 -6z"/>
<path d="M2320 1796 c0 -8 13 -16 30 -18 24 -4 30 -1 30 14 0 13 -8 18 -30 18
-19 0 -30 -5 -30 -14z"/>
<path d="M2410 1780 c12 -22 30 -18 30 6 0 8 -9 14 -20 14 -18 0 -19 -3 -10
-20z"/>
<path d="M2382 1668 c6 -16 33 -22 56 -13 14 5 14 7 2 15 -22 14 -62 12 -58
-2z"/>
<path d="M2320 1660 c0 -19 5 -25 25 -27 15 -2 16 -1 6 6 -7 5 -10 14 -7 20 4
6 0 11 -8 11 -9 0 -16 -4 -16 -10z"/>
<path d="M2844 1210 c0 -58 1 -81 3 -52 2 28 2 76 0 105 -2 28 -3 5 -3 -53z"/>
<path d="M956 1070 c-8 -43 -8 -50 3 -50 11 0 20 56 11 71 -4 6 -10 -4 -14
-21z"/>
<path d="M967 991 c-9 -30 -17 -64 -16 -75 0 -12 9 6 20 39 10 33 18 67 16 75
-2 8 -11 -9 -20 -39z"/>
<path d="M2834 865 c0 -88 2 -123 3 -77 2 46 2 118 0 160 -1 42 -3 5 -3 -83z"/>
<path d="M971 913 c-13 -43 -26 -86 -28 -95 -3 -10 -1 -18 4 -18 10 0 57 164
51 180 -2 6 -14 -24 -27 -67z"/>
<path d="M983 859 c-21 -70 -19 -99 7 -99 11 0 30 58 29 89 0 18 -6 10 -19
-29 -22 -67 -26 -44 -4 29 8 29 14 60 12 68 -2 9 -13 -17 -25 -58z"/>
<path d="M792 604 c-30 -99 -62 -248 -62 -289 0 -51 -48 -266 -66 -292 -13
-21 -13 -23 3 -23 19 0 73 103 73 138 0 10 3 22 7 25 8 9 11 36 17 145 3 46
19 139 36 207 22 86 29 129 22 141 -7 13 -14 2 -30 -52z"/>
<path d="M2363 663 c31 -2 83 -2 115 0 31 2 5 3 -58 3 -63 0 -89 -1 -57 -3z"/>
<path d="M1147 653 c-9 -8 -7 -500 2 -532 4 -16 20 -28 51 -40 36 -13 47 -23
55 -49 12 -40 25 -42 25 -2 0 34 -31 70 -60 70 -11 0 -29 9 -39 19 -18 18 -19
36 -19 276 0 141 -2 258 -4 261 -3 2 -8 1 -11 -3z"/>
<path d="M1007 543 c-6 -9 11 -454 19 -501 3 -19 11 -32 19 -32 11 0 12 6 6
23 -5 12 -6 40 -2 62 4 22 3 65 -1 95 -4 30 -8 116 -8 190 0 74 0 143 0 153
-1 17 -25 24 -33 10z"/>
<path d="M948 510 c-32 -25 -59 -93 -97 -249 -30 -121 -42 -261 -22 -261 5 0
11 35 14 78 4 86 48 283 78 352 11 25 30 55 41 67 28 30 18 39 -14 13z"/>
<path d="M500 270 c0 -5 17 -10 38 -9 30 0 33 2 17 9 -28 12 -55 12 -55 0z"/>
</g>
</svg>
